# xmcd
#
# Track frame offsets: 
#        150
#        14031
#        28051
#        43411
#        58645
#        72956
#        82816
#        94431
#        101256
#        107253
#        112700
#        132020
#        135800
#        138958
#        143223
#        149674
#        163839
#        177527
#        191734
#        205074
#        216184
#        230969
#        245654
#
# Disc length: 3439 seconds
#
# Revision: 0
# Processed by: cddbd v1.5.2PL0 Copyright (c) Steve Scherf et al.
# Submitted via: ExactAudioCopy v0.99pb3
#
DISCID=550d6d17
DTITLE=Leadbelly - The Legend Of Leadbelly
DYEAR=2006
DGENRE=Blues
TTITLE0=De Kalb Blues
TTITLE1=Looky, Looky Yonder - Black Betty - On A Monday
TTITLE2=Bourgeois Blues
TTITLE3=Poor Howard - Green Corn
TTITLE4=Gallows Pole
TTITLE5=How Long (with Sonny Terry)
TTITLE6=Goodnight Irene
TTITLE7=No Good Rider
TTITLE8=Big Fat Woman
TTITLE9=Bottle Up and Go
TTITLE10=John Hardy (Version 1 - Accordion)
TTITLE11=Bring Me Lil' Water Sylvie
TTITLE12=Julie Ann Johnson
TTITLE13=Linin' Track
TTITLE14=Whoa Back Buck
TTITLE15=Roberta
TTITLE16=Black Gal (Where Did You Sleep Last Night?)
TTITLE17=Yellow Gal
TTITLE18=When The Boys Were On The Western Plain
TTITLE19=Pretty Flowers In My Backyard
TTITLE20=In New Orleans
TTITLE21=John Hardy (Version 2)
TTITLE22=I've A Pretty Flower (with Josh White) (Pretty Flowers Versio
TTITLE22=n 2)
EXTD=
EXTT0=
EXTT1=
EXTT2=
EXTT3=
EXTT4=
EXTT5=
EXTT6=
EXTT7=
EXTT8=
EXTT9=
EXTT10=
EXTT11=
EXTT12=
EXTT13=
EXTT14=
EXTT15=
EXTT16=
EXTT17=
EXTT18=
EXTT19=
EXTT20=
EXTT21=
EXTT22=
PLAYORDER=
